<svg width="122" height="170" viewBox="0 0 122 170" fill="none" xmlns="http://www.w3.org/2000/svg">
<rect y="149.933" width="27.575" height="27.575" transform="rotate(-45 0 149.933)" fill="#3D3323"/>
<path d="M26.8598 0L0 28.373C0 28.373 8.04811 24.1196 13.6206 24.1196C24.264 24.1196 27.8061 29.0668 37.2812 30.0347C46.7563 31.0026 64.8121 28.373 64.8121 28.373C64.8121 28.373 25.6819 57.3042 30.8328 75.6015C35.9837 93.8989 52.5306 98.1222 64.8121 113.9C78.3246 131.26 81.3221 159.974 81.3221 159.974V88.5172C81.3221 88.5172 60.1552 84.4673 57.5808 67.7316C53.5047 41.2338 86.1632 22.7789 96.5226 15.6345C106.882 8.49007 119.271 1.21134e-05 119.271 1.21134e-05C119.271 1.21134e-05 108.246 2.81363 71.5355 9.05638C34.8248 15.2991 26.8598 0 26.8598 0Z" fill="#3D3323"/>
<path d="M77.42 36.8536L120.933 11.5948C121.308 11.3534 121.527 11.2497 121.527 11.2497L120.933 11.5948C118.736 13.0092 111.2 19.1505 111.2 36.8536V132.83C111.2 147.797 121.936 144.543 121.936 144.543L79.1865 169.431C79.1865 169.431 87.0923 162.964 87.0923 151.57V45.8674C87.0923 38.6912 77.42 36.8536 77.42 36.8536Z" fill="#3D3323"/>
</svg>
